name Walk7.mot
datacolumns 19
datarows 27
range 2.51600000 2.54200000
endheader

                time	   L_ground_force_vx	   L_ground_force_vy	   L_ground_force_vz	   L_ground_force_px	   L_ground_force_py	   L_ground_force_pz	   R_ground_force_vx	   R_ground_force_vy	   R_ground_force_vz	   R_ground_force_px	   R_ground_force_py	   R_ground_force_pz	   L_ground_torque_x	   L_ground_torque_y	   L_ground_torque_z	   R_ground_torque_x	   R_ground_torque_y	   R_ground_torque_z	
          2.51600000	          0.00000000	          0.00000000	          0.00000000	          0.00000000	          0.00000000	          0.00000000	          8.88587431	         46.38551949	         13.36857134	          0.65411667	          0.00000000	          0.13667715	          0.00000000	          0.00000000	          0.00000000	          0.00000000	         -2.07449159	          0.00000000	
          2.51700000	          0.00000000	          0.00000000	          0.00000000	          0.00000000	          0.00000000	          0.00000000	          7.76029239	         43.57329293	         12.46035231	          0.65425663	          0.00000000	          0.13752348	          0.00000000	          0.00000000	          0.00000000	          0.00000000	         -1.85619433	          0.00000000	
          2.51800000	          0.00000000	          0.00000000	          0.00000000	          0.00000000	          0.00000000	          0.00000000	          6.69968373	         40.78041300	         11.59788292	          0.65519484	          0.00000000	          0.13843382	          0.00000000	          0.00000000	          0.00000000	          0.00000000	         -1.64491201	          0.00000000	
          2.51900000	          0.00000000	          0.00000000	          0.00000000	          0.00000000	          0.00000000	          0.00000000	          5.68063309	         38.11885557	         10.81972301	          0.65642688	          0.00000000	          0.13981175	          0.00000000	          0.00000000	          0.00000000	          0.00000000	         -1.44495843	          0.00000000	
          2.52000000	          0.00000000	          0.00000000	          0.00000000	          0.00000000	          0.00000000	          0.00000000	          4.68355496	         35.69421387	         10.14460168	          0.65751350	          0.00000000	          0.14181948	          0.00000000	          0.00000000	          0.00000000	          0.00000000	         -1.25327397	          0.00000000	
          2.52100000	          0.00000000	          0.00000000	          0.00000000	          0.00000000	          0.00000000	          0.00000000	          3.69452445	         33.54116476	          9.55937850	          0.65826322	          0.00000000	          0.14401354	          0.00000000	          0.00000000	          0.00000000	          0.00000000	         -1.06293248	          0.00000000	
          2.52200000	          0.00000000	          0.00000000	          0.00000000	          0.00000000	          0.00000000	          0.00000000	          2.71735941	         31.61665247	          9.01540920	          0.65863741	          0.00000000	          0.14567801	          0.00000000	          0.00000000	          0.00000000	          0.00000000	         -0.87224354	          0.00000000	
          2.52300000	          0.00000000	          0.00000000	          0.00000000	          0.00000000	          0.00000000	          0.00000000	          1.78043344	         29.80344448	          8.44006740	          0.65865867	          0.00000000	          0.14648705	          0.00000000	          0.00000000	          0.00000000	          0.00000000	         -0.68822162	          0.00000000	
          2.52400000	          0.00000000	          0.00000000	          0.00000000	          0.00000000	          0.00000000	          0.00000000	          0.92963279	         27.89909513	          7.76412953	          0.65827467	          0.00000000	          0.14672367	          0.00000000	          0.00000000	          0.00000000	          0.00000000	         -0.52097534	          0.00000000	
          2.52500000	          0.00000000	          0.00000000	          0.00000000	          0.00000000	          0.00000000	          0.00000000	          0.21724281	         25.60673694	          6.93656786	          0.65736106	          0.00000000	          0.14683288	          0.00000000	          0.00000000	          0.00000000	          0.00000000	         -0.37711302	          0.00000000	
          2.52600000	          0.00000000	          0.00000000	          0.00000000	          0.00000000	          0.00000000	          0.00000000	         -0.30709445	         22.56944467	          5.91983074	          0.65614186	          0.00000000	          0.14689967	          0.00000000	          0.00000000	          0.00000000	          0.00000000	         -0.25753937	          0.00000000	
          2.52700000	          0.00000000	          0.00000000	          0.00000000	          0.00000000	          0.00000000	          0.00000000	         -0.60400553	         18.52015690	          4.70107747	          0.65531908	          0.00000000	          0.14668841	          0.00000000	          0.00000000	          0.00000000	          0.00000000	         -0.15966051	          0.00000000	
          2.52800000	          0.00000000	          0.00000000	          0.00000000	          0.00000000	          0.00000000	          0.00000000	         -0.66690315	         13.58032565	          3.34236774	          0.65541165	          0.00000000	          0.14603634	          0.00000000	          0.00000000	          0.00000000	          0.00000000	         -0.08286015	          0.00000000	
          2.52900000	          0.00000000	          0.00000000	          0.00000000	          0.00000000	          0.00000000	          0.00000000	          0.00000000	          0.00000000	          0.00000000	          0.00000000	          0.00000000	          0.00000000	          0.00000000	          0.00000000	          0.00000000	          0.00000000	          0.00000000	          0.00000000	
          2.53000000	          0.00000000	          0.00000000	          0.00000000	          0.00000000	          0.00000000	          0.00000000	          0.00000000	          0.00000000	          0.00000000	          0.00000000	          0.00000000	          0.00000000	          0.00000000	          0.00000000	          0.00000000	          0.00000000	          0.00000000	          0.00000000	
          2.53100000	          0.00000000	          0.00000000	          0.00000000	          0.00000000	          0.00000000	          0.00000000	          0.00000000	          0.00000000	          0.00000000	          0.00000000	          0.00000000	          0.00000000	          0.00000000	          0.00000000	          0.00000000	          0.00000000	          0.00000000	          0.00000000	
          2.53200000	          0.00000000	          0.00000000	          0.00000000	          0.00000000	          0.00000000	          0.00000000	          0.00000000	          0.00000000	          0.00000000	          0.00000000	          0.00000000	          0.00000000	          0.00000000	          0.00000000	          0.00000000	          0.00000000	          0.00000000	          0.00000000	
          2.53300000	          0.00000000	          0.00000000	          0.00000000	          0.00000000	          0.00000000	          0.00000000	          0.00000000	          0.00000000	          0.00000000	          0.00000000	          0.00000000	          0.00000000	          0.00000000	          0.00000000	          0.00000000	          0.00000000	          0.00000000	          0.00000000	
          2.53400000	          0.00000000	          0.00000000	          0.00000000	          0.00000000	          0.00000000	          0.00000000	          0.00000000	          0.00000000	          0.00000000	          0.00000000	          0.00000000	          0.00000000	          0.00000000	          0.00000000	          0.00000000	          0.00000000	          0.00000000	          0.00000000	
          2.53500000	          0.00000000	          0.00000000	          0.00000000	          0.00000000	          0.00000000	          0.00000000	          0.00000000	          0.00000000	          0.00000000	          0.00000000	          0.00000000	          0.00000000	          0.00000000	          0.00000000	          0.00000000	          0.00000000	          0.00000000	          0.00000000	
          2.53600000	          0.00000000	          0.00000000	          0.00000000	          0.00000000	          0.00000000	          0.00000000	          0.00000000	          0.00000000	          0.00000000	          0.00000000	          0.00000000	          0.00000000	          0.00000000	          0.00000000	          0.00000000	          0.00000000	          0.00000000	          0.00000000	
          2.53700000	          0.00000000	          0.00000000	          0.00000000	          0.00000000	          0.00000000	          0.00000000	          0.00000000	          0.00000000	          0.00000000	          0.00000000	          0.00000000	          0.00000000	          0.00000000	          0.00000000	          0.00000000	          0.00000000	          0.00000000	          0.00000000	
          2.53800000	          0.00000000	          0.00000000	          0.00000000	          0.00000000	          0.00000000	          0.00000000	          0.00000000	          0.00000000	          0.00000000	          0.00000000	          0.00000000	          0.00000000	          0.00000000	          0.00000000	          0.00000000	          0.00000000	          0.00000000	          0.00000000	
          2.53900000	          0.00000000	          0.00000000	          0.00000000	          0.00000000	          0.00000000	          0.00000000	          0.00000000	          0.00000000	          0.00000000	          0.00000000	          0.00000000	          0.00000000	          0.00000000	          0.00000000	          0.00000000	          0.00000000	          0.00000000	          0.00000000	
          2.54000000	          0.00000000	          0.00000000	          0.00000000	          0.00000000	          0.00000000	          0.00000000	          0.00000000	          0.00000000	          0.00000000	          0.00000000	          0.00000000	          0.00000000	          0.00000000	          0.00000000	          0.00000000	          0.00000000	          0.00000000	          0.00000000	
          2.54100000	          0.00000000	          0.00000000	          0.00000000	          0.00000000	          0.00000000	          0.00000000	          0.00000000	          0.00000000	          0.00000000	          0.00000000	          0.00000000	          0.00000000	          0.00000000	          0.00000000	          0.00000000	          0.00000000	          0.00000000	          0.00000000	
          2.54200000	          0.00000000	          0.00000000	          0.00000000	          0.00000000	          0.00000000	          0.00000000	          0.00000000	          0.00000000	          0.00000000	          0.00000000	          0.00000000	          0.00000000	          0.00000000	          0.00000000	          0.00000000	          0.00000000	          0.00000000	          0.00000000	
